<svg width="35" height="31" viewBox="0 0 35 31" fill="none" xmlns="http://www.w3.org/2000/svg">
<path d="M14.1792 17.8229C14.1792 18.1834 14.0761 18.5359 13.8829 18.8357C13.6898 19.1354 13.4153 19.3691 13.0941 19.5071C12.7729 19.645 12.4194 19.6811 12.0784 19.6108C11.7375 19.5405 11.4242 19.3668 11.1784 19.1119C10.9326 18.857 10.7652 18.5321 10.6973 18.1785C10.6295 17.8249 10.6643 17.4584 10.7974 17.1253C10.9304 16.7922 11.1557 16.5075 11.4448 16.3072C11.7339 16.1069 12.0737 16 12.4214 16C12.8876 16 13.3347 16.192 13.6643 16.5339C13.994 16.8758 14.1792 17.3394 14.1792 17.8229ZM22.9682 19.6458C23.3159 19.6458 23.6558 19.5389 23.9448 19.3386C24.2339 19.1383 24.4592 18.8536 24.5923 18.5205C24.7253 18.1874 24.7601 17.8209 24.6923 17.4673C24.6245 17.1137 24.457 16.7888 24.2112 16.5339C23.9654 16.279 23.6522 16.1053 23.3112 16.035C22.9702 15.9647 22.6168 16.0008 22.2956 16.1387C21.9744 16.2767 21.6998 16.5104 21.5067 16.8101C21.3135 17.1099 21.2104 17.4624 21.2104 17.8229C21.2104 18.3064 21.3956 18.77 21.7253 19.1119C22.0549 19.4538 22.502 19.6458 22.9682 19.6458ZM33.0317 18.4305C32.7231 18.5736 32.3883 18.6461 32.0503 18.6432C31.5153 18.6443 30.9969 18.4508 30.5854 18.0963V24.5069C30.5854 26.1185 29.9681 27.664 28.8693 28.8036C27.7704 29.9431 26.2801 30.5833 24.7261 30.5833H10.6636C9.10956 30.5833 7.6192 29.9431 6.52036 28.8036C5.42151 27.664 4.80419 26.1185 4.80419 24.5069V18.0963C4.39268 18.4508 3.8743 18.6443 3.33934 18.6432C3.00128 18.6461 2.66657 18.5736 2.3579 18.4305C1.875 18.2094 1.47953 17.8236 1.23707 17.3373C0.994613 16.851 0.919747 16.2934 1.02489 15.7569L3.42723 2.46483C3.48763 2.1399 3.61098 1.83105 3.78982 1.557C3.96866 1.28294 4.19927 1.04937 4.46768 0.870432C4.73609 0.691489 5.03673 0.570894 5.3514 0.515947C5.66606 0.461 5.98821 0.472844 6.29833 0.550763L14.3257 2.63193H21.0639L29.0913 0.550763C29.4014 0.472844 29.7236 0.461 30.0382 0.515947C30.3529 0.570894 30.6535 0.691489 30.9219 0.870432C31.1904 1.04937 31.421 1.28294 31.5998 1.557C31.7786 1.83105 31.902 2.1399 31.9624 2.46483L34.3647 15.7569C34.4699 16.2934 34.395 16.851 34.1525 17.3373C33.9101 17.8236 33.5146 18.2094 33.0317 18.4305ZM28.2417 15.0885L20.6391 5.06248H14.7505L7.14794 15.0885V24.5069C7.15179 25.4726 7.52343 26.3976 8.1819 27.0805C8.84037 27.7634 9.73235 28.1488 10.6636 28.1528H16.5229V26.2235L14.5161 24.1575C14.3292 23.9214 14.2337 23.6216 14.2482 23.3165C14.2626 23.0114 14.386 22.7228 14.5943 22.5068C14.8026 22.2908 15.0809 22.1629 15.3751 22.1479C15.6693 22.1329 15.9583 22.232 16.186 22.4258L17.6948 24.0056L19.2036 22.4258C19.4313 22.232 19.7203 22.1329 20.0145 22.1479C20.3088 22.1629 20.5871 22.2908 20.7953 22.5068C21.0036 22.7228 21.127 23.0114 21.1414 23.3165C21.1559 23.6216 21.0604 23.9214 20.8735 24.1575L18.8667 26.2235V28.1528H24.7261C25.6573 28.1488 26.5492 27.7634 27.2077 27.0805C27.8662 26.3976 28.2378 25.4726 28.2417 24.5069V15.0885Z" fill="#9E9E9E"/>
</svg>
